PathFileType	4	(X/Y/Z)	/Users/itak/Documents/Research/Walk-IL/dataset/trc/00391_00012.trc
DataRate	CameraRate	NumFrames	NumMarkers	Units	OrigDataRate	OrigDataStartFrame	OrigNumFrames
100.000000	100.000000	4	55	mm	100.000000	68	550
Frame#	Time	RPSI			LPSI			L3			STRN			T10			C7			CLAV			RBAK			LBAK			LSHO			LUPA			LAEL			LAOL			LWTS			LWPS			LFRA			LHPS			LHTS			RSHO			RUPA			RAEL			RWTS			RWPS			RFRA			RIFD			RHTS			RHPS			RBHD			LFHD			RFHD			LBHD			LHIP			RHIP			RASI			LASI			LKNE			LTHI			LANK			LTIP			LTOE			LMT1			LMT5			LHEE			RKNE			RTHI			RANK			RTIP			RTOE			RMT1			RMT5			RHEE			LIFD			RAOL			*53			*54			
		X1	Y1	Z1	X2	Y2	Z2	X3	Y3	Z3	X4	Y4	Z4	X5	Y5	Z5	X6	Y6	Z6	X7	Y7	Z7	X8	Y8	Z8	X9	Y9	Z9	X10	Y10	Z10	X11	Y11	Z11	X12	Y12	Z12	X13	Y13	Z13	X14	Y14	Z14	X15	Y15	Z15	X16	Y16	Z16	X17	Y17	Z17	X18	Y18	Z18	X19	Y19	Z19	X20	Y20	Z20	X21	Y21	Z21	X22	Y22	Z22	X23	Y23	Z23	X24	Y24	Z24	X25	Y25	Z25	X26	Y26	Z26	X27	Y27	Z27	X28	Y28	Z28	X29	Y29	Z29	X30	Y30	Z30	X31	Y31	Z31	X32	Y32	Z32	X33	Y33	Z33	X34	Y34	Z34	X35	Y35	Z35	X36	Y36	Z36	X37	Y37	Z37	X38	Y38	Z38	X39	Y39	Z39	X40	Y40	Z40	X41	Y41	Z41	X42	Y42	Z42	X43	Y43	Z43	X44	Y44	Z44	X45	Y45	Z45	X46	Y46	Z46	X47	Y47	Z47	X48	Y48	Z48	X49	Y49	Z49	X50	Y50	Z50	X51	Y51	Z51	X52	Y52	Z52	X53	Y53	Z53	X54	Y54	Z54	X55	Y55	Z55	

69	0.68	943.0397338867188	982.6304321289062	-17.09268951416016	933.2814331054688	975.8865356445312	-147.9934234619141	941.7936401367188	1046.248657226562	-81.14892578125	1177.04833984375	1208.029052734375	-83.23910522460938	932.0130615234375	1149.618774414062	-86.35971069335938	961.8097534179688	1399.88330078125	-100.0849838256836	1121.361328125	1326.490844726562	-88.15208435058594	922.328857421875	1254.331298828125	-29.60685920715332	951.2122192382812	1359.3955078125	-202.7128295898438	1039.75244140625	1376.682983398438	-251.0730743408203	1024.800659179688	1256.859130859375	-318.6590576171875	1062.922241210938	1061.134765625	-334.1493835449219	1003.002380371094	1037.426391601562	-276.7724304199219	1168.854370117188	858.3034057617188	-272.9158630371094	1125.74755859375	836.9428100585938	-340.0648193359375	1089.469970703125	958.4281616210938	-337.3649291992188	1147.605712890625	754.2879638671875	-327.9809265136719	1197.461791992188	764.32373046875	-288.3232421875	1016.7138671875	1384.895141601562	61.55524444580078	1005.142822265625	1318.817138671875	122.0196838378906	1032.991333007812	1056.634765625	158.4511871337891	1173.370239257812	850.9537353515625	120.8427276611328	1136.133178710938	837.7410888671875	183.4308929443359	1063.632690429688	993.45361328125	171.7488708496094	1184.626586914062	678.5	125.7026290893555	1199.679321289062	747.7030639648438	140.0915374755859	1145.292236328125	748.0935668945312	182.6396789550781	993.0855712890625	1594.248779296875	-27.43716049194336	1167.189331054688	1589.94921875	-123.3200378417969	1125.439208984375	1597.55224609375	-7.484646320343018	1030.952514648438	1583.32958984375	-182.9960174560547	1015.794738769531	959.5947265625	-263.1261901855469	1030.241943359375	955.390625	95.65470123291016	1159.770263671875	961.6273803710938	37.38348007202148	1135.40087890625	955.4755859375	-225.8043975830078	1033.903442382812	464.8748168945312	-240.4401702880859	1036.126342773438	608.003662109375	-252.0037231445312	930.8903198242188	30.55598831176758	-190.7031555175781	975.8818969726562	237.2818756103516	-227.8919830322266	1145.051025390625	34.0975341796875	-129.9705352783203	1066.613403320312	36.88627243041992	-97.73627471923828	1057.82080078125	29.28580284118652	-203.0780029296875	894.3842163085938	29.95419502258301	-133.6959075927734	1035.060424804688	466.9552307128906	72.58592987060547	1095.26904296875	727.419189453125	93.51187896728516	963.7792358398438	46.50653076171875	38.58682250976562	1035.059692382812	341.0567932128906	56.63950729370117	1141.44140625	29.53991317749023	-29.49905014038086	1064.771606445312	34.89020919799805	-56.22530746459961	1048.303466796875	36.81296539306641	41.16413497924805	887.2564086914062	34.49394226074219	-12.71696186065674	1184.975463867188	680.7164306640625	-270.6073303222656	1013.053833007812	1043.132934570312	68.73655700683594	nan	nan	nan	nan	nan	nan	
70	0.6900000000000001	943.04052734375	982.6292114257812	-17.06867790222168	933.2553100585938	975.8982543945312	-147.9725036621094	941.6347045898438	1046.232666015625	-81.16085052490234	1177.036743164062	1208.059936523438	-83.27027893066406	931.9240112304688	1149.623168945312	-86.3614501953125	961.785888671875	1399.918823242188	-100.0719985961914	1121.346923828125	1326.49609375	-88.18543243408203	922.3283081054688	1254.3515625	-29.59114837646484	951.1700439453125	1359.387817382812	-202.7051086425781	1039.701782226562	1376.687377929688	-251.0893249511719	1024.733520507812	1256.856323242188	-318.6636657714844	1062.78125	1061.094970703125	-334.1426696777344	1002.891357421875	1037.394287109375	-276.70751953125	1168.766723632812	858.2913818359375	-272.9295654296875	1125.604370117188	836.908447265625	-340.0404052734375	1089.364624023438	958.4273071289062	-337.3712768554688	1147.505249023438	754.27392578125	-327.9331665039062	1197.2685546875	764.1465454101562	-288.2378234863281	1016.725646972656	1384.908935546875	61.55210876464844	1005.159423828125	1318.829345703125	122.0154647827148	1032.997314453125	1056.635620117188	158.4195556640625	1173.309204101562	850.9310913085938	120.768440246582	1136.119750976562	837.7251586914062	183.3669891357422	1063.589721679688	993.4529418945312	171.7035522460938	1184.507446289062	678.4759521484375	125.5819702148438	1199.611694335938	747.5960083007812	139.9761657714844	1145.161010742188	748.0674438476562	182.5702972412109	993.088134765625	1594.254028320312	-27.45028686523438	1167.179809570312	1589.946166992188	-123.3397445678711	1125.434692382812	1597.549072265625	-7.510534286499023	1030.93896484375	1583.3310546875	-183.0132141113281	1015.776733398438	959.5599975585938	-263.1142883300781	1030.23291015625	955.3972778320312	95.66419219970703	1159.751586914062	961.6296997070312	37.37327575683594	1135.432250976562	955.632080078125	-225.9070587158203	1033.870483398438	464.87744140625	-240.4449462890625	1036.098388671875	608.0067138671875	-252.0121459960938	930.8945922851562	30.5556468963623	-190.6968841552734	975.8609619140625	237.2883911132812	-227.8960571289062	1145.0498046875	34.08572769165039	-129.9706878662109	1066.615478515625	36.888427734375	-97.74069976806641	1057.82177734375	29.28734397888184	-203.0780334472656	894.3888549804688	29.95088386535645	-133.6835174560547	1035.070190429688	466.9620056152344	72.59552764892578	1095.25732421875	727.4328002929688	93.52527618408203	963.792236328125	46.50943374633789	38.59277725219727	1035.064575195312	341.0618896484375	56.64303970336914	1141.442993164062	29.54364585876465	-29.5037784576416	1064.770629882812	34.88921356201172	-56.22297668457031	1048.307250976562	36.81831741333008	41.15752792358398	887.26904296875	34.48950576782227	-12.71378803253174	1184.964111328125	680.80859375	-270.6143798828125	1013.018127441406	1043.13330078125	68.71785736083984	nan	nan	nan	nan	nan	nan	
71	0.7000000000000001	943.0342407226562	982.6251220703125	-17.0449333190918	933.2299194335938	975.9151000976562	-147.9498901367188	941.5067138671875	1046.221435546875	-81.16313934326172	1177.0224609375	1208.0849609375	-83.29541778564453	931.8125610351562	1149.62939453125	-86.36782073974609	961.7552490234375	1399.95947265625	-100.0544281005859	1121.326904296875	1326.499755859375	-88.21523284912109	922.3297119140625	1254.371704101562	-29.57559204101562	951.1211547851562	1359.375610351562	-202.6924285888672	1039.645751953125	1376.694702148438	-251.1043090820312	1024.666015625	1256.853759765625	-318.6658935546875	1062.639770507812	1061.06005859375	-334.1360473632812	1002.784790039062	1037.357543945312	-276.6343688964844	1168.683959960938	858.2828369140625	-272.9381713867188	1125.467651367188	836.8883056640625	-340.01953125	1089.261108398438	958.4244995117188	-337.3759155273438	1147.389038085938	754.2590942382812	-327.8938903808594	1197.057739257812	763.9472045898438	-288.1396789550781	1016.734130859375	1384.922241210938	61.5504150390625	1005.172668457031	1318.841796875	122.0157165527344	1033.0048828125	1056.637084960938	158.3882598876953	1173.257446289062	850.9136352539062	120.6884231567383	1136.11083984375	837.71240234375	183.2985687255859	1063.55224609375	993.4530639648438	171.658203125	1184.395751953125	678.45458984375	125.4541702270508	1199.555908203125	747.5262451171875	139.8683013916016	1145.0673828125	748.05615234375	182.5161285400391	993.0867309570312	1594.2587890625	-27.46234130859375	1167.16796875	1589.94189453125	-123.3571853637695	1125.42919921875	1597.54296875	-7.536801815032959	1030.919799804688	1583.332641601562	-183.0279235839844	1015.744079589844	959.5352172851562	-263.0955810546875	1030.218017578125	955.4052734375	95.67626953125	1159.731567382812	961.6316528320312	37.36337661743164	1135.4345703125	955.7449340820312	-225.9745483398438	1033.839965820312	464.8789672851562	-240.4494934082031	1036.069213867188	608.0072631835938	-252.0179901123047	930.900634765625	30.55604362487793	-190.6908569335938	975.8386840820312	237.2955017089844	-227.8994140625	1145.049682617188	34.07207870483398	-129.9711456298828	1066.616943359375	36.8909912109375	-97.74517059326172	1057.82275390625	29.28875541687012	-203.0791625976562	894.39501953125	29.94671249389648	-133.6705322265625	1035.078857421875	466.9681091308594	72.60569000244141	1095.247924804688	727.443359375	93.53572845458984	963.8013916015625	46.51220703125	38.59818649291992	1035.071655273438	341.0690002441406	56.64624786376953	1141.443969726562	29.54438781738281	-29.50649642944336	1064.770874023438	34.89048767089844	-56.22002029418945	1048.31494140625	36.83161544799805	41.14628982543945	887.3002319335938	34.48000717163086	-12.70224952697754	1184.953735351562	680.9133911132812	-270.6347045898438	1012.963439941406	1043.135498046875	68.69678497314453	nan	nan	nan	nan	nan	nan	
72	0.71	943.0186767578125	982.6177368164062	-17.0219898223877	933.20068359375	975.9334716796875	-147.9239349365234	941.3995971679688	1046.21337890625	-81.15886688232422	1177.00439453125	1208.105224609375	-83.31568908691406	931.679931640625	1149.639526367188	-86.37739562988281	961.718994140625	1399.99951171875	-100.0346374511719	1121.297607421875	1326.499267578125	-88.23682403564453	922.3331298828125	1254.390991210938	-29.56007766723633	951.0655517578125	1359.359252929688	-202.6747741699219	1039.5830078125	1376.703125	-251.1168518066406	1024.598388671875	1256.849975585938	-318.6646118164062	1062.499877929688	1061.03076171875	-334.129150390625	1002.682861328125	1037.320434570312	-276.556884765625	1168.604370117188	858.2777099609375	-272.9415588378906	1125.338623046875	836.8826904296875	-340.0031433105469	1089.15869140625	958.4177856445312	-337.3767700195312	1147.24365234375	754.2471313476562	-327.8757019042969	1196.83056640625	763.7290649414062	-288.0308837890625	1016.739196777344	1384.9345703125	61.5504264831543	1005.182800292969	1318.854370117188	122.0212173461914	1033.012817382812	1056.639282226562	158.3583374023438	1173.216918945312	850.9017944335938	120.6036148071289	1136.106323242188	837.7030639648438	183.2275238037109	1063.520263671875	993.4530639648438	171.6129150390625	1184.289672851562	678.4340209960938	125.3225936889648	1199.51416015625	747.50439453125	139.7693176269531	1145.022216796875	748.0662231445312	182.4798278808594	993.0809936523438	1594.264404296875	-27.47174263000488	1167.15283203125	1589.937133789062	-123.3719482421875	1125.423095703125	1597.53466796875	-7.564448833465576	1030.894897460938	1583.334594726562	-183.0402679443359	1015.698486328125	959.5223999023438	-263.0700988769531	1030.197021484375	955.4141845703125	95.69033050537109	1159.710205078125	961.6337890625	37.35451507568359	1135.41650390625	955.8278198242188	-226.0173034667969	1033.812377929688	464.8798217773438	-240.4534454345703	1036.038696289062	608.0057373046875	-252.0196075439453	930.9078369140625	30.55700302124023	-190.6854858398438	975.8154296875	237.3024749755859	-227.9022674560547	1145.050903320312	34.05727005004883	-129.9718627929688	1066.617919921875	36.89434814453125	-97.74890899658203	1057.823974609375	29.29004096984863	-203.0811004638672	894.4017944335938	29.94189262390137	-133.6590728759766	1035.08447265625	466.9726257324219	72.61427307128906	1095.24560546875	727.4448852539062	93.53701019287109	963.8056640625	46.51430130004883	38.60179138183594	1035.08056640625	341.0774841308594	56.64874649047852	1141.444458007812	29.5432014465332	-29.50739669799805	1064.771606445312	34.89369964599609	-56.21712493896484	1048.328247070312	36.85409927368164	41.12941360473633	887.3319702148438	34.47113037109375	-12.68814277648926	1184.942016601562	681.0310668945312	-270.6685485839844	1012.894775390625	1043.138671875	68.67431640625	nan	nan	nan	nan	nan	nan	
